<?xml version="1.0" encoding="UTF-8" standalone="no"?>
<svg
   xmlns:dc="http://purl.org/dc/elements/1.1/"
   xmlns:cc="http://creativecommons.org/ns#"
   xmlns:rdf="http://www.w3.org/1999/02/22-rdf-syntax-ns#"
   xmlns:svg="http://www.w3.org/2000/svg"
   xmlns="http://www.w3.org/2000/svg"
   xmlns:sodipodi="http://sodipodi.sourceforge.net/DTD/sodipodi-0.dtd"
   xmlns:inkscape="http://www.inkscape.org/namespaces/inkscape"
   width="55.222099mm"
   height="54.86512mm"
   viewBox="0 0 195.66886 194.40397"
   id="svg2"
   version="1.1"
   inkscape:version="0.91 r13725"
   sodipodi:docname="lynx_logo.svg">
  <sodipodi:namedview
     pagecolor="#ffffff"
     bordercolor="#666666"
     borderopacity="1"
     objecttolerance="10"
     gridtolerance="10"
     guidetolerance="10"
     inkscape:pageopacity="0"
     inkscape:pageshadow="2"
     inkscape:window-width="1855"
     inkscape:window-height="1056"
     id="namedview4586"
     showgrid="false"
     inkscape:zoom="3.4336172"
     inkscape:cx="79.935006"
     inkscape:cy="77.639779"
     inkscape:window-x="65"
     inkscape:window-y="24"
     inkscape:window-maximized="1"
     inkscape:current-layer="layer1" />
  <defs
     id="defs4" />
  <metadata
     id="metadata7">
    <rdf:RDF>
      <cc:Work
         rdf:about="">
        <dc:format>image/svg+xml</dc:format>
        <dc:type
           rdf:resource="http://purl.org/dc/dcmitype/StillImage" />
        <dc:title />
      </cc:Work>
    </rdf:RDF>
  </metadata>
  <g
     id="layer1"
     transform="translate(-579.47659,-523.42071)">
    <path
       style="fill:none;fill-rule:evenodd;stroke:none;stroke-width:2;stroke-linecap:butt;stroke-linejoin:miter;stroke-miterlimit:4;stroke-dasharray:none;stroke-opacity:1"
       d="m 718.61242,571.4396 -100.5,57.99999"
       id="path4248" />
    <path
       style="fill:none;fill-rule:evenodd;stroke:none;stroke-width:2;stroke-linecap:butt;stroke-linejoin:miter;stroke-miterlimit:4;stroke-dasharray:none;stroke-opacity:1"
       d="m 663.89804,550.5539 -4.24264,98.28783"
       id="path4250" />
    <path
       style="fill:none;fill-rule:evenodd;stroke:#000000;stroke-width:6;stroke-linecap:butt;stroke-linejoin:miter;stroke-miterlimit:4;stroke-dasharray:none;stroke-opacity:1"
       d="m 674.86242,689.93959 60.75,-21.75"
       id="path4252" />
    <path
       style="opacity:1;fill:#0000f0;fill-opacity:1;stroke:#000000;stroke-width:3;stroke-linecap:round;stroke-linejoin:round;stroke-miterlimit:4;stroke-dasharray:none;stroke-dashoffset:0;stroke-opacity:1"
       id="path4254"
       d="m 706.00029,686.06411 a 24.994875,32.373325 55.911963 0 1 -34.13636,30.12248 24.994875,32.373325 55.911963 0 1 -25.78425,-24.64412 24.994875,32.373325 55.911963 0 1 34.12399,-30.1343 24.994875,32.373325 55.911963 0 1 25.80063,24.62965" />
    <path
       style="fill:none;fill-rule:evenodd;stroke:#000000;stroke-width:6;stroke-linecap:butt;stroke-linejoin:miter;stroke-miterlimit:4;stroke-dasharray:none;stroke-opacity:1"
       d="m 616.61242,627.18959 46,-77.24999"
       id="path4256" />
    <path
       d="m 686.05118,538.55942 a 19.33856,27.354992 36.595778 0 1 -19.13438,33.31443 19.33856,27.354992 36.595778 0 1 -25.45387,-10.96337 19.33856,27.354992 36.595778 0 1 19.12216,-33.31969 19.33856,27.354992 36.595778 0 1 25.46305,10.94737"
       id="path4258"
       style="opacity:1;fill:#007800;fill-opacity:1;stroke:#000000;stroke-width:3;stroke-linecap:round;stroke-linejoin:round;stroke-miterlimit:4;stroke-dasharray:none;stroke-dashoffset:0;stroke-opacity:1" />
    <path
       style="fill:none;fill-rule:evenodd;stroke:#000000;stroke-width:6;stroke-linecap:butt;stroke-linejoin:miter;stroke-miterlimit:4;stroke-dasharray:none;stroke-opacity:1"
       d="m 659.61242,645.18959 58,-73.24999"
       id="path4260" />
    <path
       style="fill:none;fill-rule:evenodd;stroke:#000000;stroke-width:6;stroke-linecap:butt;stroke-linejoin:miter;stroke-miterlimit:4;stroke-dasharray:none;stroke-opacity:1"
       d="m 657.11242,647.68959 90.5,-28"
       id="path4262" />
    <path
       d="m 699.93298,627.8261 a 37.300045,46.845501 34.945958 0 1 -30.31398,58.52817 37.300045,46.845501 34.945958 0 1 -48.89414,-20.8536 37.300045,46.845501 34.945958 0 1 30.29051,-58.53817 37.300045,46.845501 34.945958 0 1 48.90868,20.8255"
       id="path4264"
       style="opacity:1;fill:#003c78;fill-opacity:1;stroke:#000000;stroke-width:3;stroke-linecap:round;stroke-linejoin:round;stroke-miterlimit:4;stroke-dasharray:none;stroke-dashoffset:0;stroke-opacity:1" />
    <path
       style="opacity:1;fill:#0000f0;fill-opacity:1;stroke:#000000;stroke-width:3;stroke-linecap:round;stroke-linejoin:round;stroke-miterlimit:4;stroke-dasharray:none;stroke-dashoffset:0;stroke-opacity:1"
       id="path4266"
       d="m 756.4167,673.29988 a 17.819632,23.378849 77.225463 0 1 -30.88457,11.2529 17.819632,23.378849 77.225463 0 1 -10.80704,-23.03397 17.819632,23.378849 77.225463 0 1 30.87939,-11.26396 17.819632,23.378849 77.225463 0 1 10.82185,23.02857" />
    <path
       style="opacity:1;fill:#007800;fill-opacity:1;stroke:#000000;stroke-width:3;stroke-linecap:round;stroke-linejoin:round;stroke-miterlimit:4;stroke-dasharray:none;stroke-dashoffset:0;stroke-opacity:1"
       id="path4268"
       d="m 656.61081,614.43788 a 33.233311,43.364262 40.934196 0 1 -33.78784,50.75829 33.233311,43.364262 40.934196 0 1 -41.6355,-22.7371 33.233311,43.364262 40.934196 0 1 33.76786,-50.76921 33.233311,43.364262 40.934196 0 1 41.65171,22.71275" />
    <path
       d="m 772.62069,618.12046 a 18.938135,29.706219 60.608306 0 1 -33.93833,24.17313 18.938135,29.706219 60.608306 0 1 -18.99276,-19.61725 18.938135,29.706219 60.608306 0 1 33.9292,-24.18254 18.938135,29.706219 60.608306 0 1 19.00905,19.60564"
       id="path4270"
       style="opacity:1;fill:#0028a0;fill-opacity:1;stroke:#000000;stroke-width:3;stroke-linecap:round;stroke-linejoin:round;stroke-miterlimit:4;stroke-dasharray:none;stroke-dashoffset:0;stroke-opacity:1" />
    <path
       style="opacity:1;fill:#005050;fill-opacity:1;stroke:#000000;stroke-width:3;stroke-linecap:round;stroke-linejoin:round;stroke-miterlimit:4;stroke-dasharray:none;stroke-dashoffset:0;stroke-opacity:1"
       id="path4272"
       d="m 747.00802,565.01362 a 21.912638,30.767761 52.425628 0 1 -30.90378,30.20873 21.912638,30.767761 52.425628 0 1 -24.3173,-19.85152 21.912638,30.767761 52.425628 0 1 30.89211,-30.21826 21.912638,30.767761 52.425628 0 1 24.33213,19.83702" />
  </g>
</svg>
