<?xml version="1.0" encoding="UTF-8" standalone="no"?>
<svg id="svg2" xmlns:rdf="http://www.w3.org/1999/02/22-rdf-syntax-ns#" xmlns="http://www.w3.org/2000/svg" height="54.865mm" width="55.222mm" version="1.1" xmlns:cc="http://creativecommons.org/ns#" xmlns:dc="http://purl.org/dc/elements/1.1/" viewBox="0 0 195.66886 194.40397">
 <metadata id="metadata7">
  <rdf:RDF>
   <cc:Work rdf:about="">
    <dc:format>image/svg+xml</dc:format>
    <dc:type rdf:resource="http://purl.org/dc/dcmitype/StillImage"/>
    <dc:title/>
   </cc:Work>
  </rdf:RDF>
 </metadata>
 <g id="layer1" transform="translate(-579.48 -523.42)">
  <g fill="none">
   <path id="path4248" d="m718.61 571.44-100.5 58"/>
   <path id="path4250" d="m663.9 550.55-4.2426 98.288"/>
   <path id="path4252" d="m674.86 689.94 60.75-21.75" stroke="#000" stroke-width="6"/>
  </g>
  <g stroke="#000">
   <path id="path4254" stroke-linejoin="round" d="m706 686.06a24.995 32.373 55.912 0 1 -34.136 30.122 24.995 32.373 55.912 0 1 -25.784 -24.644 24.995 32.373 55.912 0 1 34.124 -30.134 24.995 32.373 55.912 0 1 25.801 24.63" stroke-linecap="round" stroke-width="3" fill="#0000f0"/>
   <path id="path4256" d="m616.61 627.19 46-77.25" stroke-width="6" fill="none"/>
   <path id="path4258" stroke-linejoin="round" d="m686.05 538.56a19.339 27.355 36.596 0 1 -19.134 33.314 19.339 27.355 36.596 0 1 -25.454 -10.963 19.339 27.355 36.596 0 1 19.122 -33.32 19.339 27.355 36.596 0 1 25.463 10.947" stroke-linecap="round" stroke-width="3" fill="#007800"/>
   <path id="path4260" d="m659.61 645.19 58-73.25" stroke-width="6" fill="none"/>
   <path id="path4262" d="m657.11 647.69 90.5-28" stroke-width="6" fill="none"/>
  </g>
  <g stroke-linejoin="round" stroke="#000" stroke-linecap="round" stroke-width="3">
   <path id="path4264" d="m699.93 627.83a37.3 46.846 34.946 0 1 -30.314 58.528 37.3 46.846 34.946 0 1 -48.894 -20.854 37.3 46.846 34.946 0 1 30.291 -58.538 37.3 46.846 34.946 0 1 48.909 20.826" fill="#003c78"/>
   <path id="path4266" d="m756.42 673.3a17.82 23.379 77.225 0 1 -30.885 11.253 17.82 23.379 77.225 0 1 -10.807 -23.034 17.82 23.379 77.225 0 1 30.879 -11.264 17.82 23.379 77.225 0 1 10.822 23.029" fill="#0000f0"/>
   <path id="path4268" d="m656.61 614.44a33.233 43.364 40.934 0 1 -33.788 50.758 33.233 43.364 40.934 0 1 -41.636 -22.737 33.233 43.364 40.934 0 1 33.768 -50.769 33.233 43.364 40.934 0 1 41.652 22.713" fill="#007800"/>
   <path id="path4270" d="m772.62 618.12a18.938 29.706 60.608 0 1 -33.938 24.173 18.938 29.706 60.608 0 1 -18.993 -19.617 18.938 29.706 60.608 0 1 33.929 -24.183 18.938 29.706 60.608 0 1 19.009 19.606" fill="#0028a0"/>
   <path id="path4272" d="m747.01 565.01a21.913 30.768 52.426 0 1 -30.904 30.209 21.913 30.768 52.426 0 1 -24.317 -19.852 21.913 30.768 52.426 0 1 30.892 -30.218 21.913 30.768 52.426 0 1 24.332 19.837" fill="#005050"/>
  </g>
 </g>
</svg>
